C:/Program Files (x86)/Steam/steamapps/common/Krita/krita/bin/ffmpeg.exe -hide_banner -y -y -r 2 -start_number 0 -start_number_range 1 -i C:/Users/Thomas/Desktop/Game jam/another mans trash/road tiles/frame%04d.png -i C:/Users/Thomas/Desktop/Game jam/another mans trash/road tiles/KritaTempPalettegen_%06d.png -lavfi [0:v][1:v]paletteuse=dither=sierra2_4a:diff_mode=none -f gif -loop 0 -gifflags +transdiff C:/Users/Thomas/Desktop/Game jam/another mans trash/road tiles/mermaid sing2.gif
=====================================================
Input #0, image2, from 'C:/Users/Thomas/Desktop/Game jam/another mans trash/road tiles/frame%04d.png':
  Duration: 00:00:05.20, start: 0.000000, bitrate: N/A
  Stream #0:0: Video: png, rgba(pc, gbr/unknown/unknown), 200x200 [SAR 3937:3937 DAR 1:1], 25 fps, 25 tbr, 25 tbn
Input #1, image2, from 'C:/Users/Thomas/Desktop/Game jam/another mans trash/road tiles/KritaTempPalettegen_%06d.png':
  Duration: 00:00:00.04, start: 0.000000, bitrate: N/A
  Stream #1:0: Video: png, rgba(pc, gbr/unknown/unknown), 16x16 [SAR 1:1 DAR 1:1], 25 fps, 25 tbr, 25 tbn
Stream mapping:
  Stream #0:0 (png) -> paletteuse
  Stream #1:0 (png) -> paletteuse
  paletteuse:default -> Stream #0:0 (gif)
Press [q] to stop, [?] for help
Output #0, gif, to 'C:/Users/Thomas/Desktop/Game jam/another mans trash/road tiles/mermaid sing2.gif':
  Metadata:
    encoder         : Lavf61.7.100
  Stream #0:0: Video: gif, pal8(pc, gbr/unknown/unknown, progressive), 200x200 [SAR 1:1 DAR 1:1], q=2-31, 200 kb/s, 2 fps, 100 tbn
      Metadata:
        encoder         : Lavc61.19.101 gif
frame=   88 fps=0.0 q=-0.0 size=      32KiB time=00:00:43.50 bitrate=   6.0kbits/s speed=83.9x    [out#0/gif @ 000001990f9d9500] video:33KiB audio:0KiB subtitle:0KiB other streams:0KiB global headers:0KiB muxing overhead: 0.059020%
frame=  130 fps=0.0 q=-0.0 Lsize=      33KiB time=00:01:05.00 bitrate=   4.2kbits/s speed=95.2x    
